# Blender 4.0.2
# www.blender.org
mtllib textured_cube.mtl
o Cube
v -1.000000 -1.000000 1.000000
v -1.000000 1.000000 1.000000
v -1.000000 -1.000000 -1.000000
v -1.000000 1.000000 -1.000000
v 1.000000 -1.000000 1.000000
v 1.000000 1.000000 1.000000
v 1.000000 -1.000000 -1.000000
v 1.000000 1.000000 -1.000000
vn -1.0000 -0.0000 -0.0000
vn -0.0000 -0.0000 -1.0000
vn 1.0000 -0.0000 -0.0000
vn -0.0000 -0.0000 1.0000
vn -0.0000 -1.0000 -0.0000
vn -0.0000 1.0000 -0.0000
vt 0.001624 -1.993504
vt 0.998376 -1.993504
vt 0.998376 -0.996752
vt 0.001624 -0.996752
vt 0.998376 0.000000
vt 0.001624 0.000000
vt 0.998376 0.996752
vt 0.001624 0.996752
vt 0.998376 1.993504
vt 0.001624 1.993504
vt -0.995128 0.000000
vt -0.995128 0.996752
vt 1.995128 0.000000
vt 1.995128 0.996752
s 0
usemtl Container
f 1/1/1 2/2/1 4/3/1 3/4/1
f 3/4/2 4/3/2 8/5/2 7/6/2
f 7/6/3 8/5/3 6/7/3 5/8/3
f 5/8/4 6/7/4 2/9/4 1/10/4
f 3/11/5 7/6/5 5/8/5 1/12/5
f 8/5/6 4/13/6 2/14/6 6/7/6
