# Blender 4.0.2
# www.blender.org
mtllib thingy.mtl
o Cube
v -1.000000 -1.000000 1.000000
v -1.000000 1.000000 1.000000
v -1.000000 -1.000000 -1.000000
v -1.000000 1.000000 -1.000000
v 1.000000 -1.000000 1.000000
v 1.000000 1.000000 1.000000
v 1.000000 -1.000000 -1.000000
v 1.000000 1.000000 -1.000000
v -0.370822 3.294124 0.370822
v -0.370822 3.294124 -0.370822
v 0.370822 3.294124 -0.370822
v 0.370822 3.294124 0.370822
vn -1.0000 -0.0000 -0.0000
vn -0.0000 -0.0000 -1.0000
vn 1.0000 -0.0000 -0.0000
vn -0.0000 -0.0000 1.0000
vn -0.0000 -1.0000 -0.0000
vn 0.9644 0.2645 -0.0000
vn -0.0000 1.0000 -0.0000
vn -0.9644 0.2645 -0.0000
vn -0.0000 0.2645 0.9644
vn -0.0000 0.2645 -0.9644
vt 0.375000 0.000000
vt 0.625000 0.000000
vt 0.625000 0.250000
vt 0.375000 0.250000
vt 0.625000 0.500000
vt 0.375000 0.500000
vt 0.625000 0.750000
vt 0.375000 0.750000
vt 0.625000 1.000000
vt 0.375000 1.000000
vt 0.125000 0.500000
vt 0.125000 0.750000
vt 0.875000 0.500000
vt 0.875000 0.750000
s 0
usemtl Material
f 1/1/1 2/2/1 4/3/1 3/4/1
f 3/4/2 4/3/2 8/5/2 7/6/2
f 7/6/3 8/5/3 6/7/3 5/8/3
f 5/8/4 6/7/4 2/9/4 1/10/4
f 3/11/5 7/6/5 5/8/5 1/12/5
f 11/5/7 10/13/7 9/14/7 12/7/7
usemtl Material.001
f 6/7/6 8/5/6 11/5/6 12/7/6
f 4/3/8 2/2/8 9/2/8 10/3/8
f 2/9/9 6/7/9 12/7/9 9/9/9
f 8/5/10 4/3/10 10/3/10 11/5/10
o Cube.001
v -3.604108 -1.000000 1.000000
v -3.604108 1.000000 1.000000
v -3.604108 -1.000000 -1.000000
v -3.604108 1.000000 -1.000000
v -1.604108 -1.000000 1.000000
v -1.604108 1.000000 1.000000
v -1.604108 -1.000000 -1.000000
v -1.604108 1.000000 -1.000000
v 0.639405 0.109750 -0.109750
v 0.639405 -0.109750 -0.109750
v 0.639405 -0.109750 0.109750
v 0.639405 0.109750 0.109750
vn -1.0000 -0.0000 -0.0000
vn -0.0000 -0.0000 -1.0000
vn 0.3688 -0.0000 0.9295
vn -0.0000 -0.0000 1.0000
vn -0.0000 -1.0000 -0.0000
vn -0.0000 1.0000 -0.0000
vn 1.0000 -0.0000 -0.0000
vn 0.3688 -0.9295 -0.0000
vn 0.3688 0.9295 -0.0000
vn 0.3688 -0.0000 -0.9295
vt 0.375000 0.000000
vt 0.625000 0.000000
vt 0.625000 0.250000
vt 0.375000 0.250000
vt 0.625000 0.500000
vt 0.375000 0.500000
vt 0.625000 0.750000
vt 0.375000 0.750000
vt 0.625000 1.000000
vt 0.375000 1.000000
vt 0.125000 0.500000
vt 0.125000 0.750000
vt 0.875000 0.500000
vt 0.875000 0.750000
s 0
usemtl Material.002
f 13/15/11 14/16/11 16/17/11 15/18/11
f 15/18/12 16/17/12 20/19/12 19/20/12
f 17/22/14 18/21/14 14/23/14 13/24/14
f 15/25/15 19/20/15 17/22/15 13/26/15
f 20/19/16 16/27/16 14/28/16 18/21/16
f 22/20/17 21/19/17 24/21/17 23/22/17
usemtl Material
f 18/21/13 17/22/13 23/22/13 24/21/13
f 17/22/18 19/20/18 22/20/18 23/22/18
f 20/19/19 18/21/19 24/21/19 21/19/19
f 19/20/20 20/19/20 21/19/20 22/20/20
