# Blender 4.0.2
# www.blender.org
mtllib floor.mtl
o Cube
v -30.000000 -0.080694 30.000000
v -30.000000 0.080694 30.000000
v -30.000000 -0.080694 -30.000000
v -30.000000 0.080694 -30.000000
v 30.000000 -0.080694 30.000000
v 30.000000 0.080694 30.000000
v 30.000000 -0.080694 -30.000000
v 30.000000 0.080694 -30.000000
vn -1.0000 -0.0000 -0.0000
vn -0.0000 -0.0000 -1.0000
vn 1.0000 -0.0000 -0.0000
vn -0.0000 -0.0000 1.0000
vn -0.0000 -1.0000 -0.0000
vn -0.0000 1.0000 -0.0000
vt -3.385531 -15.042123
vt 4.385530 -15.042123
vt 4.385530 -7.271061
vt -3.385531 -7.271061
vt 4.385530 0.500000
vt -3.385531 0.500000
vt 4.385530 8.271061
vt -3.385531 8.271061
vt 4.385530 16.042122
vt -3.385531 16.042122
vt -11.156592 0.500000
vt -11.156592 8.271061
vt 12.156592 0.500000
vt 12.156592 8.271061
s 0
usemtl Material
f 1/1/1 2/2/1 4/3/1 3/4/1
f 3/4/2 4/3/2 8/5/2 7/6/2
f 7/6/3 8/5/3 6/7/3 5/8/3
f 5/8/4 6/7/4 2/9/4 1/10/4
f 3/11/5 7/6/5 5/8/5 1/12/5
f 8/5/6 4/13/6 2/14/6 6/7/6
